nColumns=19
nRows=40
DataType=double
version=3
OpenSimVersion=4.1
endheader
time	ground_force_calcn_r_vx	ground_force_calcn_r_vy	ground_force_calcn_r_vz	ground_force_calcn_r_px	ground_force_calcn_r_py	ground_force_calcn_r_pz	ground_force_calcn_r_mx	ground_force_calcn_r_my	ground_force_calcn_r_mz	ground_force_calcn_l_vx	ground_force_calcn_l_vy	ground_force_calcn_l_vz	ground_force_calcn_l_px	ground_force_calcn_l_py	ground_force_calcn_l_pz	ground_force_calcn_l_mx	ground_force_calcn_l_my	ground_force_calcn_l_mz
0.03	-0.759668	32.8322	3.99735	0.0963426	0	-0.166971	-0.00718879	0.310693	0.0378272	0	0	0	0	0	0	0	0	0
0.04	-4.5708	56.1189	4.69785	0.11749	0	-0.167747	-0.0226345	0.277899	0.0232636	0	0	0	0	0	0	0	0	0
0.05	-9.66725	84.9909	5.38444	0.128619	0	-0.167834	-0.031735	0.279003	0.0176757	0	0	0	0	0	0	0	0	0
0.06	-16.2147	119.67	6.00186	0.135855	0	-0.167736	-0.0407134	0.300479	0.0150701	0	0	0	0	0	0	0	0	0
0.07	-24.3402	160.032	6.47615	0.141252	0	-0.167566	-0.051452	0.338285	0.0136897	0	0	0	0	0	0	0	0	0
0.08	-34.1014	205.491	6.711	0.145709	0	-0.167357	-0.0649535	0.391401	0.0127825	0	0	0	0	0	0	0	0	0
0.09	-45.3962	255.039	6.58751	0.149673	0	-0.167116	-0.0818959	0.460097	0.011884	0	0	0	0	0	0	0	0	0
0.1	-57.8744	307.448	5.9749	0.153362	0	-0.166838	-0.102518	0.544609	0.0105838	0	0	0	0	0	0	0	0	0
0.11	-70.991	361.35	4.74351	0.156875	0	-0.166513	-0.126445	0.643616	0.00844886	0	0	0	0	0	0	0	0	0
0.12	-84.1226	415.219	2.79987	0.160254	0	-0.16614	-0.15276	0.754005	0.00508435	0	0	0	0	0	0	0	0	0
0.13	-96.6505	467.475	0.130272	0.163508	0	-0.165725	-0.180564	0.873343	0.000243376	0	0	0	0	0	0	0	0	0
0.14	-108.006	516.683	-3.16905	0.166631	0	-0.165286	-0.209431	1.00189	-0.00614504	0	0	0	0	0	0	0	0	0
0.15	-117.704	561.673	-6.90198	0.169606	0	-0.164846	-0.239055	1.14075	-0.0140178	0	0	0	0	0	0	0	0	0
0.16	-125.383	601.554	-10.8269	0.172419	0	-0.164418	-0.268519	1.28829	-0.0231869	0	0	0	0	0	0	0	0	0
0.17	-130.809	635.658	-14.7008	0.175055	0	-0.164016	-0.296272	1.43971	-0.033296	0	0	0	0	0	0	0	0	0
0.18	-133.877	663.474	-18.2957	0.177507	0	-0.163644	-0.320636	1.58903	-0.0438185	0	0	0	0	0	0	0	0	0
0.19	-134.592	684.625	-21.4268	0.179778	0	-0.163304	-0.339925	1.72908	-0.0541153	0	0	0	0	0	0	0	0	0
0.2	-133.067	698.903	-23.9786	0.181885	0	-0.162986	-0.352522	1.85154	-0.0635242	0	0	0	0	0	0	0	0	0
0.21	-129.502	706.295	-25.9012	0.183853	0	-0.162675	-0.357295	1.94866	-0.0714612	0	0	0	0	0	0	0	0	0
0.22	-124.177	707.014	-27.202	0.185724	0	-0.162355	-0.353775	2.01424	-0.077497	0	0	0	0	0	0	0	0	0
0.23	-117.435	701.516	-27.9321	0.187548	0	-0.162003	-0.342163	2.04397	-0.0813841	0	0	0	0	0	0	0	0	0
0.24	-109.649	690.486	-28.1655	0.189383	0	-0.161598	-0.32325	2.03559	-0.0830335	0	0	0	0	0	0	0	0	0
0.25	-101.192	674.793	-27.985	0.19129	0	-0.161117	-0.298216	1.98863	-0.0824725	0	0	0	0	0	0	0	0	0
0.26	-92.4094	655.441	-27.4751	0.193328	0	-0.160539	-0.268416	1.90382	-0.0798053	0	0	0	0	0	0	0	0	0
0.27	-83.5958	633.501	-26.7176	0.19555	0	-0.159847	-0.235203	1.78241	-0.0751722	0	0	0	0	0	0	0	0	0
0.28	-74.9889	610.038	-25.7888	0.198005	0	-0.159024	-0.199826	1.62559	-0.0687204	0	0	0	0	0	0	0	0	0
0.29	-66.7654	586.05	-24.7559	0.200727	0	-0.158059	-0.163403	1.43431	-0.0605883	0	0	0	0	0	0	0	0	0
0.3	-59.0458	562.424	-23.6768	0.203738	0	-0.156946	-0.126937	1.2091	-0.0509005	0	0	0	0	0	0	0	0	0
0.31	-51.9032	539.921	-22.5998	0.20705	0	-0.155687	-0.0913581	0.950351	-0.0397793	0	0	0	0	0	0	0	0	0
0.32	-45.3673	519.165	-21.5666	0.210658	0	-0.154291	-0.0575676	0.65878	-0.0273664	0	0	0	0	0	0	0	0	0
0.33	-39.4282	500.655	-20.6167	0.21454	0	-0.152778	-0.0264474	0.335827	-0.0138292	0	0	0	0	0	0	0	0	0
0.34	-34.0422	484.781	-19.7873	0.218657	0	-0.151176	0.00111897	-0.0159349	0.000650415	0	0	0	0	0	0	0	0	0
0.35	-29.1411	471.834	-19.114	0.222955	0	-0.149519	0.0242513	-0.392661	0.0159067	0	0	0	0	0	0	0	0	0
0.36	-24.6417	462.005	-18.6293	0.22737	0	-0.147847	0.0421021	-0.789368	0.0318294	0	0	0	0	0	0	0	0	0
0.37	-20.4519	455.398	-18.3623	0.231836	0	-0.146203	0.0539027	-1.20024	0.0483956	0	0	0	0	0	0	0	0	0
0.38	-16.4741	452.031	-18.3379	0.236287	0	-0.144628	0.0589981	-1.61885	0.0656729	0	0	0	0	0	0	0	0	0
0.39	-12.6098	451.849	-18.5739	0.240668	0	-0.143157	0.0568854	-2.03838	0.0837909	0	0	0	0	0	0	0	0	0
0.4	-8.76343	454.733	-19.0783	0.244932	0	-0.141817	0.0472514	-2.45187	0.102868	0	0	0	0	0	0	0	0	0
0.41	-4.8449	460.519	-19.8455	0.249051	0	-0.140629	0.0300056	-2.8521	0.122908	0	0	0	0	0	0	0	0	0
0.42	-0.770947	469.007	-20.8574	0.253006	0	-0.139603	0.00531218	-3.23167	0.143717	0	0	0	0	0	0	0	0	0
